PathFileType	4	(X/Y/Z)	Walk9.trc
DataRate	CameraRate	NumFrames	NumMarkers	Units	OrigDataRate	OrigDataStartFrame	OrigNumFrames
200.000000	200.000000	7	59	mm	200.000000	619	743
Frame#	Times		LToe		LBHD		LWRR		LElbowM		C7		RMT1		LACR1		RMT5		RToe		RTB2		LUA1		LCAR		RTB3		RWRU		LWRU		RCAR		RFA1		RCAL		RMMAL		RLFC		LMMAL		LTH2		RElbowM		LTB2		LPSI		LASI		LTH3		LLFC		RTH3		RASI		RPSI		LFHD		LCAL		STRN		LMT5		RBHD		RACR1		RMFC		RLMAL		RElbow		LLMAL		LMFC		RFHD		LTB1		LTH4		RUA1		LTB4		RBack		LTH1		RTB1		LElbow		RTH2		LMT1		RTH1		RTH4		LTB3		RTB4		RWRR		T10
			X1	Y1	Z1	X2	Y2	Z2	X3	Y3	Z3	X4	Y4	Z4	X5	Y5	Z5	X6	Y6	Z6	X7	Y7	Z7	X8	Y8	Z8	X9	Y9	Z9	X10	Y10	Z10	X11	Y11	Z11	X12	Y12	Z12	X13	Y13	Z13	X14	Y14	Z14	X15	Y15	Z15	X16	Y16	Z16	X17	Y17	Z17	X18	Y18	Z18	X19	Y19	Z19	X20	Y20	Z20	X21	Y21	Z21	X22	Y22	Z22	X23	Y23	Z23	X24	Y24	Z24	X25	Y25	Z25	X26	Y26	Z26	X27	Y27	Z27	X28	Y28	Z28	X29	Y29	Z29	X30	Y30	Z30	X31	Y31	Z31	X32	Y32	Z32	X33	Y33	Z33	X34	Y34	Z34	X35	Y35	Z35	X36	Y36	Z36	X37	Y37	Z37	X38	Y38	Z38	X39	Y39	Z39	X40	Y40	Z40	X41	Y41	Z41	X42	Y42	Z42	X43	Y43	Z43	X44	Y44	Z44	X45	Y45	Z45	X46	Y46	Z46	X47	Y47	Z47	X48	Y48	Z48	X49	Y49	Z49	X50	Y50	Z50	X51	Y51	Z51	X52	Y52	Z52	X53	Y53	Z53	X54	Y54	Z54	X55	Y55	Z55	X56	Y56	Z56	X57	Y57	Z57	X58	Y58	Z58	X59	Y59	Z59

619	3.095	673.81	120.35	-90.646	252.84	1609	-64.472	157.4	818.1	-288.99	162.34	1099.5	-282.39	222.38	1479.6	0.61376	258.37	25.194	31.103	304.27	1413.5	-173.67	214.2	23.122	113.47	313.29	23.47	73.521	215.36	271.79	98.057	234.56	1221.8	-248.71	144.39	960.39	-290.35	188.49	188.6	21.31	342.54	818.31	256.83	223.23	783.85	-276.19	418.12	815.55	260.42	307.42	932.62	287.82	47.955	35.077	12.829	133.9	66.863	-6.259	244.35	510.87	116.4	512.75	97.311	-55.536	405.11	699.3	-122.04	204.12	1083.2	222.23	465.91	332.68	-147.02	123.31	1039.4	-40.376	313.37	1028.8	-160.9	378.14	590.09	-154.62	381.64	530.88	-149.07	246.7	558.31	122.34	306.14	994.8	150.87	120.25	1044.1	28.485	431.6	1644.3	-42.899	444.53	32.279	-85.76	141.2	1224.6	4.6814	618.49	71.185	-145.88	261.45	1601.1	72.155	210.16	1367.7	156.01	214.87	483.29	-7.3235	106.16	69.926	71.616	250.17	1084	296.93	493.48	79.853	-135.79	380.43	500.75	-20.351	435.64	1641.6	31.984	464.73	424.41	-73.27	352.48	680.8	-169.4	313.64	1244.2	242.77	479.25	332.94	-76.135	339.69	1421.8	149.41	325.35	769.45	-179.71	252.73	365.89	26.521	121.29	1099.5	-207.4	313.31	656.95	107.37	642.81	81.503	-70.431	248.67	744.37	166.18	250.78	649.6	146.17	496.04	241.92	-80.639	220.73	271.16	23.469	400.88	858.51	210.43	425.79	1229.9	-13.274
620	3.1	685	123.97	-91.198	257.76	1608.3	-65.065	160.55	817.83	-289.11	166.22	1099.3	-282.62	227.36	1479	0.13757	258.42	25.167	30.988	309.23	1412.8	-174.14	214.15	23.117	113.45	313.33	23.416	73.529	216.78	271.34	97.854	238.89	1221.4	-249.11	147.88	960.18	-290.47	189.38	188.32	21.121	347.84	817.92	256.63	226.32	783.42	-276.43	423.43	815.22	260.07	312.67	932.2	287.61	48.043	35.334	12.752	134.07	66.896	-6.343	247.07	510.31	116.17	524.37	98.276	-55.674	407.83	696.9	-123.49	209.22	1082.7	222.1	472.25	332.81	-147.35	128.19	1038.9	-41.043	318.38	1028	-160.97	379.5	587.85	-155.5	383.7	529.3	-149.37	249.65	557.8	122.17	310.56	994.08	150.82	124.91	1043.6	27.786	436.51	1643.7	-43.522	457.26	31.83	-85.655	146.08	1224.1	4.1663	630.43	73.797	-146.29	266.39	1600.5	71.562	215.24	1367.2	155.62	217.6	482.82	-7.5846	106.35	70.144	71.478	255.34	1083.5	296.75	505.27	80.413	-135.83	383.22	499.13	-20.649	440.57	1641	31.356	469.61	424.64	-73.795	354.48	678.79	-170.12	318.81	1243.7	242.38	486.08	333.43	-76.579	344.76	1421.2	148.9	328.04	767.65	-180.36	254.27	365.78	25.495	125.36	1099.4	-207.51	316.65	656.13	107.16	654.78	84.659	-70.958	252.35	743.85	165.91	254.08	649.08	145.97	504.7	242.68	-81.002	222.01	270.79	23.063	406.07	858.13	210.09	430.66	1229.2	-13.588
621	3.105	695.5	127.34	-91.743	262.68	1607.6	-65.682	163.79	817.53	-289.23	170.15	1099	-282.88	232.34	1478.4	-0.36197	258.46	25.159	30.883	314.19	1412.1	-174.63	214.1	23.111	113.43	313.36	23.362	73.529	218.2	270.89	97.655	243.26	1220.9	-249.53	151.44	959.93	-290.6	190.28	188.04	20.94	353.11	817.5	256.41	229.51	782.98	-276.67	428.71	814.84	259.7	317.9	931.76	287.38	48.139	35.609	12.683	134.24	66.942	-6.4248	249.83	509.74	115.94	535.32	99.239	-55.735	410.61	694.56	-125	214.31	1082.2	221.93	478.45	332.9	-147.66	133.08	1038.3	-41.716	323.42	1027.2	-161.03	380.96	585.67	-156.38	385.97	527.82	-149.68	252.63	557.3	122	315.02	993.32	150.78	129.6	1043.1	27.084	441.42	1643.1	-44.16	469.19	31.492	-85.449	150.98	1223.5	3.6261	641.58	76.251	-146.68	271.33	1599.9	70.947	220.31	1366.7	155.21	220.35	482.36	-7.8623	106.54	70.363	71.35	260.51	1083.1	296.53	516.31	80.985	-135.78	386.12	497.62	-20.979	445.5	1640.5	30.714	474.45	424.82	-74.286	356.53	676.8	-170.88	323.98	1243.2	241.97	492.69	333.87	-76.978	349.83	1420.7	148.37	330.72	765.85	-181.05	255.79	365.72	24.368	129.47	1099.3	-207.66	320.02	655.29	106.94	666	87.641	-71.479	256.08	743.32	165.62	257.43	648.55	145.76	512.94	243.4	-81.297	223.31	270.43	22.664	411.24	857.71	209.73	435.54	1228.5	-13.926
622	3.11	705.27	130.4	-92.286	267.61	1606.9	-66.323	167.13	817.21	-289.36	174.14	1098.7	-283.16	237.32	1477.8	-0.88582	258.51	25.169	30.788	319.16	1411.4	-175.15	214.05	23.105	113.41	313.38	23.309	73.522	219.64	270.44	97.46	247.66	1220.5	-249.99	155.07	959.66	-290.75	191.18	187.76	20.766	358.34	817.05	256.16	232.82	782.52	-276.92	433.94	814.42	259.33	323.09	931.29	287.12	48.242	35.904	12.625	134.42	66.999	-6.504	252.6	509.17	115.71	545.55	100.15	-55.714	413.47	692.34	-126.53	219.41	1081.7	221.72	484.49	332.94	-147.93	137.99	1037.7	-42.392	328.49	1026.4	-161.08	382.62	583.58	-157.27	388.5	526.45	-149.98	255.64	556.8	121.85	319.51	992.53	150.74	134.31	1042.5	26.382	446.34	1642.5	-44.812	480.27	31.226	-85.128	155.89	1223	3.0645	651.9	78.477	-147.03	276.26	1599.3	70.308	225.38	1366.1	154.76	223.11	481.89	-8.1574	106.72	70.586	71.235	265.67	1082.6	296.27	526.58	81.516	-135.64	389.18	496.23	-21.334	450.43	1639.9	30.058	479.27	424.93	-74.744	358.69	674.87	-171.68	329.14	1242.7	241.52	499.07	334.25	-77.327	354.88	1420.1	147.81	333.42	764.08	-181.77	257.31	365.69	23.162	133.63	1099.1	-207.84	323.43	654.44	106.71	676.45	90.377	-71.987	259.86	742.78	165.32	260.82	648.02	145.55	520.76	244.04	-81.522	224.63	270.08	22.279	416.39	857.25	209.36	440.44	1227.7	-14.289
623	3.115	714.3	133.08	-92.836	272.54	1606.2	-66.987	170.57	816.85	-289.49	178.18	1098.4	-283.47	242.3	1477.2	-1.4351	258.55	25.197	30.704	324.14	1410.6	-175.69	214	23.098	113.41	313.4	23.256	73.508	221.09	269.99	97.268	252.1	1220	-250.47	158.78	959.35	-290.92	192.09	187.5	20.599	363.53	816.57	255.9	236.23	782.05	-277.18	439.14	813.97	258.94	328.26	930.81	286.83	48.349	36.219	12.578	134.59	67.071	-6.5803	255.4	508.6	115.47	555.05	100.98	-55.611	416.43	690.29	-128.05	224.5	1081.2	221.46	490.36	332.9	-148.16	142.92	1037.1	-43.067	333.58	1025.6	-161.15	384.55	581.63	-158.14	391.35	525.2	-150.29	258.69	556.31	121.71	324.02	991.71	150.71	139.05	1041.9	25.683	451.25	1641.9	-45.479	490.48	30.992	-84.682	160.81	1222.4	2.4846	661.36	80.413	-147.35	281.19	1598.7	69.644	230.44	1365.6	154.28	225.88	481.42	-8.4704	106.91	70.815	71.136	270.82	1082.1	295.97	536.04	81.961	-135.4	392.41	494.98	-21.7	455.36	1639.4	29.391	484.07	424.96	-75.17	361.03	673.04	-172.51	334.3	1242.1	241.04	505.22	334.53	-77.625	359.94	1419.5	147.23	336.17	762.37	-182.54	258.83	365.65	21.911	137.84	1098.9	-208.06	326.86	653.57	106.47	686.11	92.804	-72.477	263.7	742.24	165.01	264.25	647.48	145.32	528.14	244.57	-81.676	225.95	269.72	21.911	421.5	856.76	208.98	445.36	1227	-14.678
624	3.12	722.57	135.34	-93.401	277.47	1605.5	-67.676	174.12	816.46	-289.64	182.29	1098	-283.81	247.28	1476.6	-2.0109	258.6	25.242	30.631	329.12	1409.9	-176.25	213.95	23.089	113.4	313.41	23.205	73.49	222.55	269.56	97.08	256.58	1219.5	-250.97	162.57	959	-291.11	193	187.24	20.438	368.67	816.07	255.61	239.76	781.56	-277.45	444.29	813.48	258.54	333.41	930.31	286.51	48.46	36.557	12.543	134.76	67.156	-6.6528	258.22	508.02	115.22	563.8	101.67	-55.429	419.52	688.45	-129.52	229.59	1080.6	221.16	496.04	332.76	-148.35	147.86	1036.5	-43.74	338.69	1024.8	-161.22	386.81	579.85	-159.01	394.53	524.09	-150.59	261.77	555.83	121.59	328.55	990.88	150.68	143.82	1041.3	24.991	456.17	1641.3	-46.159	499.78	30.754	-84.112	165.75	1221.8	1.8896	669.94	82.007	-147.65	286.11	1598	68.958	235.5	1365	153.77	228.66	480.96	-8.8018	107.1	71.053	71.055	275.95	1081.6	295.63	544.67	82.277	-135.06	395.87	493.88	-22.061	460.28	1638.8	28.711	488.86	424.89	-75.565	363.59	671.35	-173.37	339.44	1241.6	240.53	511.13	334.7	-77.871	364.99	1418.9	146.63	339.02	760.77	-183.36	260.39	365.57	20.664	142.09	1098.7	-208.31	330.32	652.69	106.21	694.97	94.863	-72.95	267.58	741.68	164.69	267.72	646.94	145.07	535.09	244.96	-81.759	227.3	269.36	21.56	426.58	856.24	208.58	450.29	1226.3	-15.094
625	3.125	730.09	137.11	-93.988	282.41	1604.8	-68.389	177.78	816.04	-289.81	186.45	1097.6	-284.18	252.26	1475.9	-2.6141	258.64	25.303	30.567	334.1	1409.1	-176.85	213.91	23.079	113.4	313.42	23.157	73.471	224.01	269.12	96.894	261.1	1219	-251.49	166.45	958.62	-291.32	193.91	186.99	20.281	373.77	815.55	255.3	243.4	781.06	-277.73	449.4	812.96	258.14	338.52	929.8	286.17	48.572	36.921	12.519	134.92	67.257	-6.7209	261.06	507.44	114.97	571.79	102.2	-55.174	422.78	686.87	-130.93	234.67	1080.1	220.82	501.54	332.5	-148.49	152.81	1035.9	-44.41	343.83	1024	-161.3	389.47	578.28	-159.87	398.07	523.11	-150.88	264.89	555.35	121.48	333.11	990.05	150.64	148.62	1040.7	24.307	461.09	1640.6	-46.853	508.18	30.481	-83.427	170.69	1221.2	1.2819	677.65	83.219	-147.92	291.02	1597.4	68.247	240.54	1364.5	153.23	231.45	480.5	-9.1513	107.3	71.302	70.992	281.08	1081.1	295.25	552.46	82.432	-134.64	399.57	492.94	-22.398	465.2	1638.2	28.019	493.64	424.73	-75.927	366.43	669.83	-174.28	344.58	1241	239.99	516.82	334.74	-78.065	370.03	1418.3	146	342.02	759.3	-184.22	262.01	365.41	19.478	146.4	1098.4	-208.61	333.82	651.79	105.94	703.02	96.506	-73.407	271.5	741.12	164.35	271.23	646.4	144.81	541.59	245.18	-81.775	228.65	269	21.225	431.63	855.69	208.17	455.24	1225.6	-15.538
